<?xml version="1.0" encoding="UTF-8"?>
<svg width="100pt" height="100pt" version="1.1" viewBox="0 0 100 100" xmlns="http://www.w3.org/2000/svg">
 <path d="m77.531 0h-55.062c-6.3672 0-11.531 5.1641-11.531 11.531v76.941c0 6.3633 5.1641 11.527 11.531 11.527h55.066c6.3633 0 11.527-5.1641 11.527-11.531v-76.938c0-6.3672-5.1641-11.531-11.531-11.531zm-30.516 58.535c-1.3125 0.44531-3.793 1.0625-6.2734 1.0625-3.4297 0-5.9141-0.86719-7.6406-2.5391-1.7305-1.6172-2.6797-4.0703-2.6484-6.8359 0.027344-6.25 4.5742-9.8164 10.738-9.8164 2.4297 0 4.2969 0.47656 5.2188 0.92188l-0.89062 3.4023c-1.0312-0.44531-2.3164-0.80859-4.3789-0.80859-3.543 0-6.2188 2.0078-6.2188 6.0781 0 3.875 2.4258 6.1641 5.9102 6.1641 0.97656 0 1.7578-0.10937 2.0938-0.28125l-0.007812-3.9297h-2.9023v-3.3203h7zm7.3203 0.86328h-4.2656l-0.003906-18.797h4.2656zm14.895-15.312h-7.2227v4.2969h6.75v3.4609h-6.75v7.5586h-4.2656v-18.801h11.488z"/>
</svg>
