<?xml version="1.0" encoding="utf-8"?>
<!-- Generator: Adobe Illustrator 23.0.4, SVG Export Plug-In . SVG Version: 6.00 Build 0)  -->
<svg version="1.1" id="Layer_1" xmlns="http://www.w3.org/2000/svg" xmlns:xlink="http://www.w3.org/1999/xlink" x="0px" y="0px"
	 viewBox="0 0 135.7 78" style="enable-background:new 0 0 135.7 78;" xml:space="preserve">
<style type="text/css">
	.st0{fill:#340458;}
	.st1{fill:#F6F3FA;}
	.st2{fill:#14CAC9;}
</style>
<g class="main" transform="translate(-311.071 -222.27)">
	<path class="st0" d="M313.4,252.3c-1.1-0.2-2.2,0.6-2.4,1.7c0,0.2,0,0.4,0,0.6v20.6c0,7.9,2.1,14.1,6.3,18.5
		c4.2,4.4,10.2,6.6,17.9,6.6c1.6,0,3.2-0.1,4.8-0.3c1.4-0.2,2.7-0.3,3.9-0.5c1-0.2,1.4-0.9,1.4-2.3v-42.6c0.2-1.1-0.6-2.2-1.8-2.3
		c-0.2,0-0.4,0-0.6,0L313.4,252.3z"/>
	<path class="st0" d="M349,226.4c0-2.8,1.4-4.1,4.1-4.1h48.9c14.1,0,25.1,3.7,32.9,11.1c7.8,7.4,11.7,17.9,11.8,31.6
		c0,2.8-0.1,5.6-0.5,8.4c-0.3,2.5-0.6,4.8-0.9,6.8c-0.3,1.7-1.7,2.5-4.1,2.5h-88.1c-2.8,0-4.1-1.4-4.1-4.1L349,226.4z"/>
	<g transform="translate(354.152 234.148)">
		<path class="st1" d="M5.8,0.2v1.2c0,0.1-0.1,0.2-0.1,0.2c0,0,0,0,0,0H3.7v5.6c0,0.1,0,0.2-0.1,0.2c0,0,0,0,0,0H2.3
			c-0.1,0-0.2-0.1-0.2-0.1c0,0,0,0,0,0V1.5H0.2C0.1,1.5,0,1.5,0,1.4V0.2C0,0.1,0,0,0.1,0c0,0,0,0,0,0h5.5C5.7,0,5.8,0,5.8,0.2
			C5.8,0.2,5.8,0.2,5.8,0.2z"/>
		<path class="st1" d="M10.9,0h1.3c0.1,0,0.2,0.1,0.2,0.1c0,0,0,0,0,0v6.9c0,0.1-0.1,0.2-0.2,0.2c0,0,0,0,0,0h-1.3
			c-0.1,0-0.2,0-0.2-0.1c0,0,0,0,0,0V4.4H8.4v2.7c0,0.1-0.1,0.2-0.2,0.2c0,0,0,0,0,0H6.9c-0.1,0-0.2,0-0.2-0.1c0,0,0,0,0,0V0.2
			C6.7,0.1,6.8,0,6.9,0c0,0,0,0,0,0h1.3c0.1,0,0.2,0.1,0.2,0.1c0,0,0,0,0,0v2.7h2.3V0.2C10.7,0.1,10.8,0,10.9,0
			C10.9,0,10.9,0,10.9,0z"/>
		<path class="st1" d="M18.7,5.8c0.1,0,0.2,0.1,0.2,0.1c0,0,0,0,0,0v1.1c0,0.1,0,0.2-0.1,0.2c0,0,0,0,0,0h-4.6c-0.1,0-0.2,0-0.2-0.1
			c0,0,0,0,0,0V0.2C14,0.1,14,0,14.1,0c0,0,0,0,0,0h4.4c0.1,0,0.2,0.1,0.2,0.1c0,0,0,0,0,0v1.1c0,0.1-0.1,0.2-0.2,0.2c0,0,0,0,0,0
			h-2.9v1.4h2.6c0.1,0,0.2,0.1,0.2,0.2v1.1c0,0.1-0.1,0.2-0.2,0.2h-2.6v1.5L18.7,5.8z"/>
		<path class="st1" d="M12.6,20.1c0,2.8-1.9,4.5-5.1,4.5H1.8c-0.2,0-0.3-0.1-0.4-0.3c0,0,0-0.1,0-0.1V10.4c0-0.2,0.1-0.3,0.3-0.4
			c0,0,0.1,0,0.1,0h5.6c2.8,0,4.5,1.5,4.5,4.1c0,1.1-0.5,2.1-1.4,2.7C11.9,17.3,12.7,18.7,12.6,20.1z M4.8,15.7H7
			c1,0,1.6-0.4,1.6-1.4c0-0.9-0.6-1.4-1.6-1.4H4.8V15.7z M9.2,20c0-1-0.6-1.7-2-1.7H4.8v3.4h2.5C8.4,21.7,9.2,21.2,9.2,20L9.2,20z"
			/>
		<path class="st1" d="M18,24.6h-2.6c-0.2,0-0.3-0.1-0.4-0.3c0,0,0-0.1,0-0.1V10.4c0-0.2,0.1-0.3,0.3-0.4c0,0,0.1,0,0.1,0H18
			c0.2,0,0.4,0.1,0.4,0.3c0,0,0,0,0,0.1v13.9C18.4,24.4,18.2,24.6,18,24.6C18,24.6,18,24.6,18,24.6z"/>
		<path class="st1" d="M21,19.4v-4.3c0-3.5,2.4-5.4,6-5.4c1.7,0,3.5,0.5,5,1.3c0.2,0.1,0.2,0.3,0.1,0.5c0,0,0,0,0,0.1l-1.4,2
			c-0.1,0.2-0.3,0.2-0.5,0.1c-1-0.5-2.1-0.8-3.2-0.8c-1.2-0.2-2.4,0.7-2.6,2c0,0.1,0,0.3,0,0.5v4.1c-0.1,1.3,0.9,2.4,2.1,2.5
			c0.2,0,0.3,0,0.5,0c0.8,0,1.6-0.2,2.3-0.6v-2.4h-2.2c-0.2,0-0.3-0.1-0.4-0.3c0,0,0-0.1,0-0.1v-2c0-0.2,0.1-0.3,0.3-0.3
			c0,0,0.1,0,0.1,0h5c0.2,0,0.3,0.1,0.4,0.3c0,0,0,0,0,0.1v5.9c0,0.2,0,0.3-0.1,0.4c-1.4,1.4-3.3,2.1-5.3,2.1
			C23.5,24.9,21,23,21,19.4z"/>
		<path class="st1" d="M9.8,27.3h2.6c0.2,0,0.4,0.1,0.4,0.3c0,0,0,0,0,0.1v13.9c0,0.2-0.1,0.3-0.3,0.4c0,0,0,0-0.1,0H9.8
			c-0.2,0-0.3-0.1-0.4-0.3c0,0,0-0.1,0-0.1v-5.5H4.8v5.5c0,0.2-0.1,0.3-0.3,0.4c0,0,0,0-0.1,0H1.8c-0.2,0-0.3-0.1-0.4-0.3
			c0,0,0-0.1,0-0.1V27.7c0-0.2,0.1-0.3,0.3-0.4c0,0,0.1,0,0.1,0h2.6c0.2,0,0.4,0.1,0.4,0.3c0,0,0,0,0,0.1V33h4.7v-5.4
			C9.4,27.5,9.6,27.3,9.8,27.3C9.8,27.3,9.8,27.3,9.8,27.3z"/>
		<path class="st1" d="M14.1,41.5l4.8-13.9c0-0.2,0.2-0.3,0.4-0.3h3.1c0.2,0,0.4,0.1,0.4,0.3l4.8,13.9c0.1,0.1,0,0.3-0.1,0.4
			c-0.1,0-0.1,0-0.2,0h-2.8c-0.2,0-0.4-0.1-0.4-0.3l-0.8-2.5h-5.1l-0.8,2.5c0,0.2-0.2,0.3-0.4,0.3h-2.8c-0.2,0-0.3-0.1-0.3-0.2
			C14,41.6,14,41.6,14.1,41.5z M22.5,36.3c-0.6-1.8-1.2-4-1.6-5.4h-0.1c-0.4,1.4-1.1,3.6-1.6,5.4H22.5z"/>
		<path class="st1" d="M28.4,36.8v-4.3c0-3.6,2.4-5.4,6-5.4c1.6,0,3.1,0.4,4.4,1.3c0.1,0.1,0.2,0.2,0.2,0.4c0,0,0,0.1-0.1,0.1
			l-1.3,2c-0.1,0.2-0.3,0.2-0.4,0.2c0,0-0.1,0-0.1-0.1c-0.8-0.5-1.7-0.7-2.6-0.7c-1.3-0.2-2.5,0.7-2.7,2c0,0.1,0,0.3,0,0.4v4
			c0,1.6,1,2.5,2.7,2.5c1,0,2.1-0.3,2.9-0.9c0.1-0.1,0.3-0.1,0.4,0c0,0,0.1,0.1,0.1,0.1l1.3,2c0.1,0.2,0.1,0.3,0,0.5
			c-1.4,1-3.1,1.5-4.8,1.5C30.9,42.2,28.4,40.3,28.4,36.8z"/>
		<path class="st1" d="M41.3,41.6V27.7c0-0.2,0.1-0.3,0.3-0.4c0,0,0.1,0,0.1,0h2.6c0.2,0,0.4,0.1,0.4,0.3c0,0,0,0,0,0.1v5.2l4-5.3
			c0.1-0.1,0.3-0.2,0.4-0.2h3.3c0.3,0,0.4,0.2,0.2,0.4l-4.9,6l5.5,7.8c0.2,0.2,0.1,0.4-0.2,0.4h-3.2c-0.2,0-0.4-0.1-0.4-0.2
			l-3.8-5.5l-0.9,1v4.3c0,0.2-0.1,0.3-0.3,0.4c0,0,0,0-0.1,0h-2.6C41.5,42,41.3,41.8,41.3,41.6C41.3,41.6,41.3,41.6,41.3,41.6z"/>
	</g>
</g>
<path class="st2" d="M74.4,78h-33c-1.9,0-3.4-1.5-3.4-3.4v-8.9c0-1.9,1.5-3.4,3.4-3.4h33c1.9,0,3.4,1.5,3.4,3.4v8.9
	C77.7,76.5,76.2,78,74.4,78z"/>
<g class="beta">
	<path class="st0" d="M48.4,69.7c0.9,0.3,1.3,1,1.3,2.1c0,0.9-0.3,1.6-0.8,2.1c-0.6,0.5-1.3,0.8-2.3,0.8H43c-0.2,0-0.2-0.1-0.2-0.2
		v-8.7c0-0.2,0.1-0.2,0.2-0.2h3.5c0.9,0,1.6,0.2,2.1,0.7s0.7,1.1,0.7,1.9C49.3,68.8,49,69.4,48.4,69.7z M44.8,67.2V69h1.4
		c0.6,0,1-0.3,1-0.9c0-0.3-0.1-0.5-0.3-0.7s-0.4-0.2-0.7-0.2H44.8z M46.4,72.8c0.4,0,0.6-0.1,0.9-0.3c0.2-0.2,0.3-0.5,0.3-0.8
		c0-0.7-0.4-1-1.2-1h-1.5v2.1H46.4z"/>
	<path class="st0" d="M53.2,72.8h3.8c0.1,0,0.2,0.1,0.2,0.2v1.4c0,0.2-0.1,0.2-0.2,0.2h-5.7c-0.2,0-0.2-0.1-0.2-0.2v-8.7
		c0-0.2,0.1-0.2,0.2-0.2h5.5c0.2,0,0.2,0.1,0.2,0.2v1.4c0,0.1-0.1,0.2-0.2,0.2h-3.6v1.8h3.2c0.2,0,0.2,0.1,0.2,0.2v1.4
		c0,0.1-0.1,0.2-0.2,0.2h-3.2V72.8z"/>
	<path class="st0" d="M65,65.4c0.1,0,0.2,0.1,0.2,0.2v1.5c0,0.1-0.1,0.2-0.2,0.2h-2.4v7.1c0,0.2-0.1,0.2-0.2,0.2h-1.6
		c-0.1,0-0.2-0.1-0.2-0.2v-7.1h-2.4c-0.2,0-0.2-0.1-0.2-0.2v-1.5c0-0.2,0.1-0.2,0.2-0.2H65z"/>
	<path class="st0" d="M65.6,74.6c-0.1,0-0.1,0-0.2-0.1c0,0,0-0.1,0-0.2l3-8.8c0-0.1,0.1-0.2,0.2-0.2h1.9c0.1,0,0.2,0.1,0.3,0.2
		l3,8.8c0,0.1,0,0.1,0,0.2c0,0-0.1,0.1-0.2,0.1H72c-0.1,0-0.2-0.1-0.3-0.2l-0.5-1.6h-3.1l-0.5,1.6c0,0.1-0.1,0.2-0.3,0.2H65.6z
		 M68.6,71.1h2.1c0-0.1-0.4-1.2-1-3.4h-0.1C69,69.9,68.7,71,68.6,71.1z"/>
</g>
</svg>
