<svg xmlns="http://www.w3.org/2000/svg" xmlns:xlink="http://www.w3.org/1999/xlink" width="256" height="256" viewBox="0 0 256 256"><defs><style>.a{clip-path:url(#b);}.b{fill:#340458;stroke:#707070;}.c,.e{fill:#fff;}.d{fill:#322153;}.e{font-size:67px;font-family:Hargreaves-Black, Hargreaves;font-weight:800;}.f{stroke:none;}.g{fill:none;}</style><clipPath id="b"><rect width="256" height="256"/></clipPath></defs><g id="a" class="a"><rect class="c" width="256" height="256"/><g class="b"><rect class="f" width="256" height="256"/><rect class="g" x="0.5" y="0.5" width="255" height="255"/></g><g transform="translate(38.847 32.546)"><path class="c" d="M314.157,270.763q-3.086,0-3.086,3.047v27.055q0,15.572,8.23,24.2t23.492,8.631a53.309,53.309,0,0,0,6.259-.339q2.829-.341,5.058-.677c1.257-.227,1.886-1.24,1.886-3.046V273.807q0-3.046-3.087-3.046Z" transform="translate(-311.071 -231.373)"/><path class="c" d="M372.362,227.707q0-5.438,5.437-5.437H441.94q27.8,0,43.2,14.5t15.406,41.386a92.438,92.438,0,0,1-.6,11.026q-.609,4.984-1.209,8.911c-.406,2.213-2.214,3.323-5.437,3.323H377.8q-5.438,0-5.437-5.437Z" transform="translate(-322.577 -222.27)"/><g transform="translate(56.484 15.574)"><path class="d" d="M388.24,241.684v1.529a.207.207,0,0,1-.232.227h-2.488v7.35a.211.211,0,0,1-.231.241h-1.714a.211.211,0,0,1-.232-.241v-7.35h-2.488c-.163,0-.245-.08-.245-.227v-1.529a.215.215,0,0,1,.245-.241h7.152A.211.211,0,0,1,388.24,241.684Z" transform="translate(-380.61 -241.443)"/><path class="d" d="M396.965,241.443h1.7a.22.22,0,0,1,.244.241v9.107a.22.22,0,0,1-.244.241h-1.7a.215.215,0,0,1-.245-.241v-3.6h-3.06v3.6a.22.22,0,0,1-.245.241h-1.7a.215.215,0,0,1-.245-.241v-9.107a.215.215,0,0,1,.245-.241h1.7a.22.22,0,0,1,.245.241V245.2h3.06v-3.514A.215.215,0,0,1,396.965,241.443Z" transform="translate(-382.649 -241.443)"/><path class="d" d="M409.4,249.088a.207.207,0,0,1,.231.228v1.475a.211.211,0,0,1-.231.241h-5.985a.215.215,0,0,1-.244-.241v-9.107a.215.215,0,0,1,.244-.241h5.766a.22.22,0,0,1,.245.241v1.476a.217.217,0,0,1-.245.228h-3.821v1.837h3.373c.163,0,.245.081.245.228V246.9c0,.148-.082.228-.245.228h-3.373v1.958Z" transform="translate(-384.845 -241.443)"/><path class="d" d="M397.578,270.825c0,3.7-2.447,5.929-6.66,5.929h-7.476a.429.429,0,0,1-.489-.482V258.056a.429.429,0,0,1,.489-.482h7.394c3.724,0,5.926,1.984,5.926,5.418a3.942,3.942,0,0,1-1.876,3.541A4.24,4.24,0,0,1,397.578,270.825Zm-10.248-5.767h2.936c1.25,0,2.039-.564,2.039-1.878,0-1.234-.762-1.877-2.039-1.877h-2.936Zm5.791,5.633c0-1.287-.761-2.172-2.583-2.172h-3.208v4.426h3.317C392.087,272.944,393.12,272.247,393.12,270.69Z" transform="translate(-381.05 -244.471)"/><path class="d" d="M408.729,276.753h-3.4a.429.429,0,0,1-.488-.482V258.056a.428.428,0,0,1,.488-.482h3.4a.439.439,0,0,1,.488.482v18.215A.44.44,0,0,1,408.729,276.753Z" transform="translate(-385.159 -244.471)"/><path class="d" d="M414.579,269.859v-5.606c0-4.641,3.208-7.109,7.829-7.109a13,13,0,0,1,6.524,1.744.439.439,0,0,1,.137.67l-1.849,2.576c-.162.268-.381.268-.625.107a8.438,8.438,0,0,0-4.213-1.019c-2.066,0-3.371,1.1-3.371,3.165v5.338c0,2.146,1.36,3.192,3.425,3.192a6.023,6.023,0,0,0,3.017-.751v-3.084h-2.908a.422.422,0,0,1-.462-.484V265.97a.413.413,0,0,1,.462-.457h6.606a.413.413,0,0,1,.461.457V273.7a.686.686,0,0,1-.19.536,9.889,9.889,0,0,1-6.986,2.79C417.813,277.022,414.579,274.527,414.579,269.859Z" transform="translate(-386.987 -244.391)"/><path class="d" d="M393.935,285.512h3.4a.44.44,0,0,1,.489.482v18.215a.44.44,0,0,1-.489.482h-3.4a.429.429,0,0,1-.488-.482v-7.189h-6.117v7.189a.441.441,0,0,1-.489.482h-3.4a.429.429,0,0,1-.489-.482V285.994a.429.429,0,0,1,.489-.482h3.4a.44.44,0,0,1,.489.482v7.029h6.117v-7.029A.428.428,0,0,1,393.935,285.512Z" transform="translate(-381.05 -249.716)"/><path class="d" d="M403.293,304.155l6.334-18.269a.5.5,0,0,1,.517-.374h4.1a.552.552,0,0,1,.543.374l6.307,18.269a.368.368,0,0,1-.381.536h-3.642a.527.527,0,0,1-.544-.4l-1.006-3.273h-6.633l-1.033,3.273a.507.507,0,0,1-.543.4h-3.643A.368.368,0,0,1,403.293,304.155Zm11.118-6.868c-.761-2.36-1.6-5.285-2.147-7.081h-.11c-.544,1.8-1.386,4.721-2.148,7.081Z" transform="translate(-384.862 -249.716)"/><path class="d" d="M426.527,297.823v-5.605c0-4.668,3.181-7.136,7.829-7.136a10.227,10.227,0,0,1,5.79,1.717.366.366,0,0,1,.109.617l-1.713,2.575a.417.417,0,0,1-.652.135,6.41,6.41,0,0,0-3.425-.966c-2.283,0-3.507,1.288-3.507,3.219v5.258c0,2.066,1.305,3.246,3.534,3.246a7.129,7.129,0,0,0,3.86-1.127.4.4,0,0,1,.652.107l1.713,2.576c.191.241.191.456,0,.59a10.55,10.55,0,0,1-6.253,1.958C429.68,304.986,426.527,302.492,426.527,297.823Z" transform="translate(-389.23 -249.635)"/><path class="d" d="M447.243,304.209V285.994a.429.429,0,0,1,.489-.482h3.4a.44.44,0,0,1,.489.482v6.76l5.22-6.947a.644.644,0,0,1,.571-.295h4.322c.407,0,.543.241.3.563l-6.47,7.833,7.232,10.22c.217.3.08.564-.3.564h-4.185a.613.613,0,0,1-.572-.322l-4.921-7.162-1.2,1.34v5.661a.441.441,0,0,1-.489.482h-3.4A.429.429,0,0,1,447.243,304.209Z" transform="translate(-393.119 -249.716)"/></g></g><text class="e" transform="translate(29 204.869)"><tspan x="0" y="0">AX Gif</tspan></text></g></svg>